<svg width="331" height="266" viewBox="0 0 331 266" fill="none" xmlns="http://www.w3.org/2000/svg">
<mask id="mask0_150_374" style="mask-type:luminance" maskUnits="userSpaceOnUse" x="63" y="19" width="219" height="193">
<path d="M63.3303 19.7585H281.028V211.417H63.3303V19.7585Z" fill="white"/>
</mask>
<g mask="url(#mask0_150_374)">
<mask id="mask1_150_374" style="mask-type:luminance" maskUnits="userSpaceOnUse" x="41" y="0" width="247" height="227">
<path d="M41.9857 23.5366L266.483 0.0230713L287.793 202.842L63.2994 226.355L41.9857 23.5366Z" fill="white"/>
</mask>
<g mask="url(#mask1_150_374)">
<mask id="mask2_150_374" style="mask-type:luminance" maskUnits="userSpaceOnUse" x="41" y="0" width="247" height="227">
<path d="M41.9857 23.5366L266.483 0.0230713L287.793 202.842L63.2994 226.355L41.9857 23.5366Z" fill="white"/>
</mask>
<g mask="url(#mask2_150_374)">
<path d="M263.143 93.1239C251.184 74.6195 234.899 62.7528 217.288 59.7118C182.72 53.7341 162.891 40.3739 148.411 30.6181C133.877 20.8275 125.107 14.9154 113.205 25.5897C96.5494 40.5282 98.3197 58.2878 100.194 77.0932C102.077 95.9642 104.021 115.48 88.3277 134.818C76.202 149.764 68.5409 163.514 65.5529 175.689C62.9167 186.448 64.1382 195.463 69.0898 201.765C77.2959 212.22 94.3577 213.447 112.552 204.899C132.153 195.687 145.875 199.029 163.246 203.255C178.669 207.01 197.393 211.567 225.908 208.58C229.859 208.167 234.002 207.608 238.347 206.882C252.278 204.555 263.054 197.914 270.379 187.143C276.889 177.576 280.352 164.969 280.391 150.69C280.445 131.148 274.16 110.166 263.143 93.1239ZM279.517 150.686C279.432 181.026 263.986 201.711 238.204 206.022C202.689 211.953 180.934 206.662 163.455 202.41C152.184 199.666 142.439 197.293 131.635 198.423C125.625 199.056 119.286 200.77 112.181 204.108C94.3693 212.478 77.7211 211.347 69.7739 201.229C59.2408 187.815 66.4304 163.194 89.008 135.366C104.926 115.75 102.962 96.053 101.064 77.0083C99.2126 58.4267 97.4616 40.8794 113.789 26.238C125.18 16.023 133.259 21.4643 147.92 31.3436C162.466 41.1418 182.388 54.5638 217.141 60.5724C234.505 63.5748 250.581 75.3026 262.409 93.5986C273.336 110.501 279.571 131.31 279.517 150.686ZM214.59 62.6563C181.881 57.0027 163.115 44.3603 149.412 35.1294C135.652 25.8559 127.345 20.2564 116.066 30.3711C100.291 44.5147 101.969 61.3326 103.743 79.1347C105.525 96.9907 107.365 115.453 92.5217 133.749C70.8872 160.411 64.0764 184.11 74.308 197.142C82.0851 207.041 98.2424 208.206 115.474 200.11C134.016 191.4 147 194.556 163.436 198.558C178.032 202.109 195.758 206.427 222.746 203.598C226.488 203.205 230.411 202.676 234.52 201.989C247.713 199.786 257.917 193.495 264.852 183.299C271.017 174.242 274.295 162.306 274.334 148.784C274.384 130.283 268.431 110.424 258.006 94.2893C246.685 76.7729 231.266 65.5391 214.59 62.6563ZM273.456 148.784C273.379 177.484 258.768 197.053 234.377 201.128C200.768 206.743 180.185 201.734 163.645 197.709C152.976 195.116 143.75 192.87 133.522 193.939C127.832 194.537 121.833 196.158 115.103 199.322C98.254 207.237 82.5103 206.172 74.996 196.602C65.035 183.913 71.838 160.623 93.1981 134.3C108.269 115.723 106.41 97.0795 104.613 79.0498C102.862 61.4716 101.207 44.8697 116.649 31.0194C127.418 21.3601 135.056 26.5081 148.925 35.851C162.69 45.1283 181.549 57.8324 214.443 63.5169C230.871 66.3572 246.082 77.456 257.272 94.764C267.608 110.756 273.51 130.445 273.456 148.784ZM211.896 65.6047C181.039 60.2714 163.339 48.3468 150.417 39.6368C137.422 30.8843 129.579 25.5974 118.926 35.1487C104.037 48.505 105.618 64.3736 107.291 81.1761C108.973 98.0172 110.708 115.429 96.7117 132.68C76.2909 157.845 69.8706 180.212 79.5301 192.515C86.8705 201.862 102.127 202.965 118.397 195.324C135.88 187.108 148.125 190.088 163.625 193.862C177.398 197.212 194.123 201.283 219.584 198.616C223.117 198.246 226.816 197.748 230.697 197.096C243.148 195.016 252.78 189.08 259.328 179.456C265.146 170.904 268.238 159.639 268.273 146.881C268.323 129.423 262.707 110.683 252.869 95.4587C242.181 78.9263 227.632 68.3253 211.896 65.6047ZM267.399 146.877C267.322 174.346 253.893 192.334 230.55 196.235C198.85 201.538 179.435 196.81 163.834 193.013C153.765 190.562 145.06 188.444 135.408 189.455C130.039 190.014 124.372 191.55 118.022 194.533C102.139 201.997 87.2995 200.993 80.2182 191.975C70.8292 180.015 77.2457 158.053 97.3882 133.228C111.613 115.7 109.858 98.106 108.165 81.0874C106.51 64.5125 104.949 48.8562 119.51 35.8008C129.652 26.7011 136.854 31.552 149.926 40.3623C162.918 49.1109 180.706 61.0972 211.745 66.4652C227.238 69.1435 241.582 79.6055 252.131 95.9295C261.883 111.015 267.445 129.585 267.399 146.877ZM209.198 68.553C180.2 63.54 163.563 52.3294 151.418 44.1481C139.192 35.9128 131.817 30.9384 121.786 39.9301C107.778 52.4914 109.266 67.4146 110.844 83.2176C112.421 99.0399 114.052 115.402 100.902 131.611C81.6986 155.275 75.6648 176.311 84.7523 187.888C91.6597 196.687 106.012 197.725 121.315 190.535C137.747 182.817 149.25 185.615 163.815 189.161C176.76 192.31 192.488 196.139 216.426 193.63C219.743 193.283 223.222 192.816 226.871 192.206C238.579 190.25 247.639 184.666 253.801 175.612C259.27 167.57 262.181 156.977 262.216 144.975C262.258 128.562 256.982 110.937 247.728 96.6241C237.682 81.0796 223.995 71.1116 209.198 68.553ZM261.338 144.975C261.269 170.777 248.652 187.68 226.728 191.346C196.933 196.324 178.685 191.882 164.023 188.312C154.557 186.009 146.37 184.017 137.294 184.967C132.246 185.495 126.916 186.939 120.944 189.744C106.023 196.752 92.0887 195.815 85.4403 187.348C76.6195 176.118 82.6534 155.487 101.582 132.163C114.96 115.673 113.31 99.1287 111.713 83.1288C110.159 67.5574 108.694 52.8465 122.37 40.5823C131.891 32.0459 138.651 36.5997 150.931 44.8697C163.142 53.1012 179.868 64.3698 209.047 69.4136C240.438 74.8395 261.431 112.863 261.338 144.975ZM206.5 71.4975C179.361 66.8087 163.791 56.3158 152.42 48.6555C140.966 40.9373 134.051 36.2794 124.647 44.7115C111.524 56.4818 112.915 70.4594 114.392 85.2591C115.869 100.066 117.395 115.379 105.092 130.542C87.1101 152.705 81.4551 172.413 89.9744 183.261C96.4489 191.508 109.9 192.484 124.237 185.746C139.606 178.526 150.375 181.146 164.004 184.465C176.126 187.413 190.849 190.998 213.264 188.648C216.372 188.324 219.627 187.884 223.044 187.313C234.014 185.48 242.502 180.247 248.273 171.765C253.399 164.232 256.124 154.31 256.155 143.072C256.201 127.701 251.253 111.196 242.591 97.7934C233.179 83.233 220.361 73.894 206.5 71.4975ZM255.281 143.068C255.215 167.211 243.411 183.025 222.901 186.452C195.02 191.11 177.935 186.954 164.213 183.616C155.346 181.459 147.681 179.591 139.181 180.482C134.449 180.98 129.459 182.327 123.866 184.959C109.908 191.515 96.8779 190.636 90.6624 182.721C82.4137 172.22 88.061 152.917 105.772 131.094C118.304 115.649 116.758 100.155 115.262 85.1703C113.808 70.5983 112.436 56.8368 125.23 45.3637C134.125 37.3831 140.452 41.6435 151.933 49.381C163.366 57.0838 179.029 67.6345 206.353 72.3581C235.726 77.4367 255.366 113.021 255.281 143.068ZM203.802 74.4459C178.522 70.0774 164.016 60.3023 153.425 53.1668C142.737 45.9657 136.285 41.6204 127.507 49.4929C115.266 60.4682 116.568 73.5004 117.94 87.3005C119.316 101.089 120.739 115.352 109.282 129.473C92.5139 150.138 87.2493 168.515 95.1926 178.634C101.238 186.329 113.781 187.243 127.155 180.957C141.469 174.234 151.496 176.673 164.193 179.765C175.488 182.516 189.21 185.854 210.103 183.666C212.998 183.361 216.036 182.952 219.217 182.42C229.449 180.71 237.365 175.832 242.746 167.921C247.527 160.897 250.067 151.647 250.098 141.166C250.136 126.841 245.529 111.455 237.45 98.9589C228.68 85.3864 216.728 76.6803 203.802 74.4459ZM249.224 141.166C249.158 163.645 238.173 178.368 219.074 181.559C193.095 185.9 177.185 182.03 164.398 178.916C156.138 176.905 148.991 175.168 141.067 175.998C136.657 176.457 132.003 177.719 126.784 180.17C113.793 186.275 101.663 185.457 95.8807 178.094C88.2079 168.318 93.4687 150.35 109.962 130.025C121.643 115.626 120.206 101.182 118.814 87.2118C117.461 73.6432 116.182 60.8232 128.091 50.1451C136.363 42.7241 142.25 46.6912 152.934 53.8923C163.59 61.0702 178.186 70.9032 203.655 75.3064C231.01 80.0338 249.301 113.176 249.224 141.166ZM201.108 77.3942C177.68 73.346 164.24 64.2887 154.426 57.6781C144.507 50.9941 138.524 46.9614 130.368 54.2743C119.011 64.4585 120.217 76.5452 121.493 89.342C122.764 102.116 124.082 115.329 113.472 128.408C97.9216 147.568 93.0435 164.618 100.415 174.007C106.027 181.15 117.666 182.003 130.078 176.172C143.332 169.943 152.621 172.205 164.383 175.068C174.854 177.615 187.575 180.71 206.941 178.684C209.627 178.402 212.441 178.02 215.394 177.53C224.884 175.944 232.228 171.417 237.222 164.077C241.652 157.563 244.01 148.98 244.037 139.263C244.075 125.976 239.8 111.713 232.313 100.128C224.176 87.5398 213.094 79.4665 201.108 77.3942ZM243.163 139.259C243.105 160.079 232.932 173.713 215.251 176.666C191.182 180.687 176.435 177.102 164.588 174.219C156.927 172.355 150.301 170.742 142.953 171.51C138.864 171.938 134.546 173.108 129.707 175.381C117.681 181.03 106.452 180.278 101.103 173.466C93.9982 164.421 98.8764 147.78 114.152 128.956C124.987 115.599 123.653 102.204 122.362 89.2532C121.11 76.6841 119.927 64.8135 130.951 54.9265C138.601 48.0651 144.047 51.7389 153.939 58.3997C163.819 65.0567 177.347 74.1719 200.957 78.2548C226.295 82.6349 243.237 113.334 243.163 139.259ZM198.41 80.3426C176.841 76.6108 164.464 68.2752 155.427 62.1855C146.281 56.0225 140.758 52.3023 133.228 59.0558C122.757 68.4488 123.866 79.5862 125.041 91.3834C126.216 103.142 127.426 115.302 117.662 127.335C103.329 145.002 98.8338 160.716 105.637 169.38C110.817 175.975 121.555 176.758 133 171.383C145.195 165.652 153.745 167.732 164.572 170.368C174.22 172.714 185.94 175.57 203.783 173.698C206.257 173.439 208.85 173.092 211.568 172.637C220.319 171.174 227.091 166.999 231.695 160.234C235.78 154.225 237.957 146.318 237.98 137.357C238.014 125.116 234.076 111.972 227.176 101.294C219.677 89.6932 209.461 82.2528 198.41 80.3426ZM237.106 137.357C237.052 156.51 227.69 169.056 211.425 171.776C189.26 175.477 175.685 172.174 164.777 169.519C157.719 167.801 151.612 166.316 144.84 167.026C141.067 167.419 137.089 168.496 132.625 170.595C121.566 175.79 111.242 175.103 106.325 168.839C99.7924 160.523 104.284 145.21 118.342 127.887C128.331 115.576 127.101 103.231 125.911 91.2947C124.759 79.729 123.669 68.8 133.812 59.7041C140.835 53.4061 145.845 56.7828 154.94 62.911C164.043 69.0431 176.509 77.4405 198.259 81.1993C221.579 85.232 237.172 113.492 237.106 137.357ZM195.712 83.2871C176.002 79.8795 164.692 72.2616 156.432 66.6968C148.052 61.0509 142.996 57.6433 136.088 63.8372C126.498 72.4353 127.515 82.631 128.593 93.421C129.664 104.169 130.77 115.279 121.852 126.27C108.737 142.432 104.628 156.818 110.859 164.753C115.606 170.796 125.439 171.518 135.918 166.597C147.058 161.364 154.87 163.263 164.762 165.671C173.582 167.817 184.301 170.426 200.621 168.716C202.882 168.481 205.255 168.16 207.745 167.743C215.754 166.404 221.954 162.584 226.167 156.386C229.909 150.891 231.899 143.651 231.923 135.454C231.984 113.295 217.447 87.0458 195.712 83.2871ZM231.045 135.45C230.999 152.944 222.452 164.401 207.598 166.883C187.343 170.267 174.935 167.249 164.967 164.822C158.508 163.248 152.922 161.889 146.726 162.538C143.274 162.9 139.633 163.884 135.547 165.806C125.451 170.549 116.031 169.924 111.547 164.212C105.587 156.622 109.692 142.64 122.532 126.818C131.678 115.549 130.549 104.257 129.463 93.3361C128.408 82.7699 127.414 72.7903 136.672 64.4855C143.073 58.747 147.642 61.8266 155.941 67.4184C164.267 73.0257 175.666 80.7092 195.565 84.1476C216.863 87.8292 231.107 113.647 231.045 135.45ZM193.014 86.2354C175.16 83.1481 164.916 76.2442 157.433 71.2042C149.826 66.0793 145.23 62.9843 138.949 68.6186C130.24 76.4256 131.164 85.672 132.142 95.4625C133.112 105.191 134.113 115.252 126.042 125.201C114.145 139.861 110.422 152.921 116.077 160.126C120.391 165.617 129.324 166.277 138.84 161.808C148.921 157.069 155.995 158.79 164.947 160.971C172.949 162.92 182.666 165.285 197.459 163.734C199.511 163.518 201.661 163.228 203.918 162.85C211.189 161.634 216.813 158.169 220.64 152.542C224.037 147.553 225.839 140.984 225.862 133.548C225.92 113.454 212.735 89.643 193.014 86.2354ZM224.988 133.548C224.942 149.378 217.211 159.744 203.771 161.99C185.43 165.057 174.185 162.321 165.156 160.122C159.3 158.698 154.232 157.467 148.612 158.053C145.481 158.381 142.176 159.277 138.469 161.017C129.336 165.308 120.82 164.745 116.769 159.589C111.377 152.724 115.099 140.074 126.723 125.749C135.021 115.526 133.997 105.284 133.011 95.3776C132.057 85.8148 131.156 76.7806 139.532 69.2708C145.307 64.088 149.439 66.8743 156.946 71.9297C164.491 77.016 174.827 83.9778 192.867 87.096C212.147 90.4302 225.042 113.805 224.988 133.548ZM190.32 89.1838C174.321 86.4168 165.141 80.2306 158.438 75.7155C151.596 71.1077 147.468 68.3253 141.809 73.4C133.986 80.412 134.817 88.7168 135.69 97.504C136.56 106.218 137.457 115.229 130.236 124.128C119.552 137.295 116.213 149.019 121.299 155.499C125.18 160.438 133.212 161.036 141.763 157.019C150.785 152.778 157.12 154.321 165.137 156.27C172.315 158.018 181.027 160.141 194.301 158.748C196.141 158.559 198.07 158.296 200.091 157.957C212.395 155.904 219.762 146.067 219.805 131.645C219.855 113.608 208.019 92.244 190.32 89.1838ZM218.927 131.642C218.889 145.812 211.97 155.089 199.948 157.1C183.509 159.844 173.436 157.393 165.345 155.425C160.088 154.144 155.543 153.04 150.498 153.569C147.684 153.862 144.72 154.665 141.388 156.232C133.22 160.068 125.605 159.57 121.987 154.962C117.171 148.826 120.507 137.504 130.913 124.68C138.365 115.499 137.445 106.307 136.56 97.4191C135.706 88.8557 134.902 80.7671 142.393 74.0484C147.541 69.429 151.241 71.9181 157.947 76.4372C164.715 80.9986 173.988 87.2465 190.169 90.0443C207.435 93.0274 218.977 113.963 218.927 131.642ZM187.622 92.1321C173.482 89.6854 165.365 84.2171 159.439 80.2268C153.367 76.1361 149.702 73.6663 144.666 78.1815C137.731 84.4023 138.466 91.7578 139.239 99.5454C140.008 107.244 140.8 115.202 134.426 123.063C124.96 134.725 122.007 145.121 126.522 150.871C129.969 155.263 137.097 155.796 144.681 152.23C152.648 148.49 158.241 149.849 165.326 151.574C171.677 153.121 179.392 154.997 191.139 153.766C192.766 153.596 194.475 153.364 196.265 153.067C207.173 151.242 213.709 142.524 213.744 129.739C213.79 113.766 203.303 94.8412 187.622 92.1321ZM212.87 129.739C212.835 142.243 206.732 150.432 196.122 152.207C181.592 154.634 172.69 152.469 165.535 150.725C160.881 149.594 156.853 148.614 152.385 149.081C149.892 149.343 147.263 150.053 144.31 151.443C137.109 154.823 130.399 154.391 127.21 150.335C122.965 144.925 125.915 134.937 135.107 123.611C141.709 115.472 140.897 107.333 140.112 99.4605C139.358 91.8967 138.643 84.7574 145.253 78.8298C149.78 74.77 153.038 76.9659 158.952 80.9484C164.943 84.9851 173.15 90.5151 187.471 92.9888C202.72 95.6246 212.913 114.117 212.87 129.739ZM184.924 95.0766C172.643 92.9541 165.589 88.2035 160.44 84.7342C155.322 81.2842 151.94 79.0073 147.526 82.9629C141.473 88.3926 142.114 94.8026 142.791 101.587C143.456 108.267 144.144 115.179 138.616 121.994C130.368 132.155 127.801 141.224 131.744 146.244C134.759 150.084 140.982 150.555 147.603 147.445C154.511 144.199 159.37 145.38 165.515 146.877C171.043 148.22 177.753 149.857 187.977 148.784C189.396 148.637 190.884 148.436 192.442 148.174C201.954 146.584 207.656 138.982 207.687 127.836C207.725 113.921 198.588 97.4384 184.924 95.0766ZM206.813 127.833C206.782 138.677 201.491 145.777 192.295 147.313C179.674 149.424 171.94 147.541 165.724 146.028C161.669 145.04 158.164 144.187 154.271 144.597C152.099 144.824 149.803 145.446 147.228 146.653C140.994 149.586 135.184 149.212 132.432 145.708C128.756 141.027 131.322 132.367 139.297 122.542C145.052 115.449 144.345 108.36 143.661 101.502C143.007 94.9415 142.389 88.7438 148.114 83.6112C152.018 80.111 154.835 82.0097 159.953 85.4597C165.168 88.9715 172.307 93.7838 184.773 95.9372C198.004 98.2256 206.848 114.276 206.813 127.833ZM182.225 98.025C171.801 96.2228 165.817 92.19 161.445 89.2455C157.066 86.2972 154.174 84.3444 150.386 87.7443C145.218 92.3791 145.763 97.8436 146.339 103.628C146.904 109.294 147.487 115.152 142.806 120.925C135.775 129.589 133.591 137.326 136.966 141.617C139.544 144.905 144.867 145.314 150.522 142.655C156.374 139.904 160.49 140.911 165.705 142.177C170.405 143.323 176.118 144.712 184.815 143.802C186.021 143.674 187.289 143.504 188.615 143.281C196.736 141.926 201.599 135.439 201.626 125.93C201.661 114.079 193.872 100.039 182.225 98.025ZM200.752 125.93C200.729 135.111 196.249 141.12 188.472 142.42C177.761 144.215 171.19 142.613 165.91 141.332C162.458 140.49 159.474 139.761 156.157 140.108C154.302 140.305 152.346 140.834 150.151 141.864C144.878 144.342 139.973 144.033 137.654 141.081C134.55 137.129 136.73 129.797 143.487 121.473C148.396 115.422 147.766 109.112 147.209 103.543C146.656 97.9825 146.131 92.7341 150.974 88.3926C154.252 85.452 156.494 86.9609 160.954 89.9672C165.392 92.958 171.468 97.0486 182.079 98.8855C193.288 100.823 200.783 114.434 200.752 125.93Z" fill="#E9E8E4"/>
</g>
</g>
</g>
<path d="M95.592 258.36C93.48 258.36 91.956 257.928 91.02 257.064C90.108 256.2 89.652 254.748 89.652 252.708V241.8H84.972V239.28H89.652V233.16H92.532V239.28H99.732V241.8H92.532V252.096C92.532 253.512 92.784 254.496 93.288 255.048C93.816 255.576 94.776 255.84 96.168 255.84C96.84 255.84 97.464 255.792 98.04 255.696C98.64 255.576 99.204 255.42 99.732 255.228V257.748C99.06 257.964 98.376 258.12 97.68 258.216C97.008 258.312 96.312 258.36 95.592 258.36ZM106.536 240.9C107.712 240.492 108.972 240.144 110.316 239.856C111.684 239.568 113.028 239.34 114.348 239.172C115.692 239.004 116.928 238.92 118.056 238.92V241.44C117.072 241.44 116.028 241.512 114.924 241.656C113.82 241.776 112.728 241.956 111.648 242.196C110.568 242.436 109.584 242.724 108.696 243.06L109.416 241.692V258H106.536V240.9ZM129.396 258.36C126.996 258.36 125.112 257.82 123.744 256.74C122.376 255.636 121.692 254.136 121.692 252.24C121.692 250.248 122.448 248.748 123.96 247.74C125.496 246.732 127.752 246.228 130.728 246.228H133.968V248.568H130.764C128.676 248.568 127.116 248.868 126.084 249.468C125.076 250.068 124.572 250.98 124.572 252.204C124.572 253.356 124.992 254.268 125.832 254.94C126.672 255.612 127.824 255.948 129.288 255.948C130.056 255.948 130.8 255.852 131.52 255.66C132.264 255.468 132.888 255.216 133.392 254.904L132.6 256.56V245.832C132.6 244.608 132.504 243.672 132.312 243.024C132.12 242.376 131.736 241.944 131.16 241.728C130.608 241.488 129.792 241.368 128.712 241.368C128.016 241.368 127.344 241.404 126.696 241.476C126.048 241.548 125.4 241.668 124.752 241.836C124.104 241.98 123.42 242.184 122.7 242.448V239.964C123.54 239.628 124.5 239.376 125.58 239.208C126.684 239.016 127.824 238.92 129 238.92C130.632 238.92 131.916 239.124 132.852 239.532C133.788 239.94 134.448 240.648 134.832 241.656C135.216 242.64 135.408 244.008 135.408 245.76V257.208C134.664 257.568 133.74 257.844 132.636 258.036C131.532 258.252 130.452 258.36 129.396 258.36ZM148.512 258.36C142.968 258.36 140.196 255.36 140.196 249.36V247.92C140.196 241.92 142.98 238.92 148.548 238.92C150.108 238.92 151.524 239.112 152.796 239.496V247.02H149.988V239.928L151.356 241.98C150.828 241.788 150.3 241.656 149.772 241.584C149.244 241.488 148.716 241.44 148.188 241.44C146.412 241.44 145.116 241.968 144.3 243.024C143.484 244.08 143.076 245.772 143.076 248.1V249.18C143.076 250.788 143.256 252.084 143.616 253.068C144 254.052 144.612 254.76 145.452 255.192C146.292 255.624 147.408 255.84 148.8 255.84C149.472 255.84 150.132 255.792 150.78 255.696C151.428 255.6 152.1 255.444 152.796 255.228V257.784C152.148 257.952 151.464 258.084 150.744 258.18C150.024 258.3 149.28 258.36 148.512 258.36ZM158.448 258V231.72H161.256V247.308H161.4L169.5 239.28H172.956L164.028 248.28L173.208 258H169.752L161.4 249.288H161.256V258H158.448ZM182.352 258.36C181.32 258.36 180.348 258.276 179.436 258.108C178.548 257.964 177.66 257.724 176.772 257.388V254.832C177.708 255.168 178.62 255.42 179.508 255.588C180.42 255.756 181.332 255.84 182.244 255.84C183.78 255.84 184.92 255.612 185.664 255.156C186.408 254.7 186.78 254.004 186.78 253.068C186.78 252.588 186.624 252.156 186.312 251.772C186.024 251.388 185.556 251.016 184.908 250.656C184.284 250.296 183.444 249.936 182.388 249.576C180.924 249.096 179.748 248.592 178.86 248.064C177.972 247.512 177.324 246.888 176.916 246.192C176.532 245.496 176.34 244.68 176.34 243.744C176.34 242.088 176.916 240.876 178.068 240.108C179.244 239.316 181.068 238.92 183.54 238.92C184.38 238.92 185.22 238.98 186.06 239.1C186.9 239.196 187.92 239.4 189.12 239.712V245.22H186.312V240.18L187.608 241.908C186.72 241.716 185.988 241.596 185.412 241.548C184.836 241.476 184.272 241.44 183.72 241.44C182.208 241.44 181.08 241.644 180.336 242.052C179.592 242.436 179.22 243.036 179.22 243.852C179.22 244.308 179.364 244.74 179.652 245.148C179.94 245.532 180.408 245.904 181.056 246.264C181.704 246.624 182.58 246.996 183.684 247.38C185.148 247.884 186.312 248.412 187.176 248.964C188.064 249.492 188.7 250.104 189.084 250.8C189.468 251.472 189.66 252.276 189.66 253.212C189.66 254.94 189.048 256.236 187.824 257.1C186.624 257.94 184.8 258.36 182.352 258.36ZM194.592 240.072C196.248 239.304 198.228 238.92 200.532 238.92C202.452 238.92 203.976 239.22 205.104 239.82C206.232 240.42 207.036 241.404 207.516 242.772C208.02 244.116 208.272 245.952 208.272 248.28C208.272 250.704 208.008 252.66 207.48 254.148C206.976 255.612 206.148 256.68 204.996 257.352C203.868 258.024 202.368 258.36 200.496 258.36C199.632 258.36 198.804 258.288 198.012 258.144C197.22 258.024 196.512 257.844 195.888 257.604L196.68 255.048C197.376 255.336 198.06 255.552 198.732 255.696C199.404 255.816 200.076 255.876 200.748 255.876C201.948 255.876 202.884 255.648 203.556 255.192C204.252 254.712 204.744 253.92 205.032 252.816C205.32 251.712 205.464 250.212 205.464 248.316C205.464 246.54 205.32 245.16 205.032 244.176C204.768 243.168 204.3 242.46 203.628 242.052C202.98 241.644 202.068 241.44 200.892 241.44C200.172 241.44 199.464 241.512 198.768 241.656C198.096 241.776 197.412 242.004 196.716 242.34L197.4 240.72V265.56H194.592V240.072ZM219.36 258V241.8H212.88V239.28H222.24V258H219.36ZM220.224 235.896C219.456 235.896 218.832 235.68 218.352 235.248C217.896 234.792 217.668 234.192 217.668 233.448C217.668 232.68 217.896 232.08 218.352 231.648C218.832 231.216 219.456 231 220.224 231C220.992 231 221.604 231.216 222.06 231.648C222.54 232.08 222.78 232.68 222.78 233.448C222.78 234.192 222.54 234.792 222.06 235.248C221.604 235.68 220.992 235.896 220.224 235.896ZM230.268 240.072C231.18 239.664 232.152 239.376 233.184 239.208C234.216 239.016 235.38 238.92 236.676 238.92C238.5 238.92 239.916 239.124 240.924 239.532C241.956 239.94 242.676 240.648 243.084 241.656C243.516 242.64 243.732 244.008 243.732 245.76V258H240.924V245.904C240.924 244.728 240.804 243.816 240.564 243.168C240.324 242.52 239.892 242.076 239.268 241.836C238.668 241.572 237.816 241.44 236.712 241.44C236.16 241.44 235.644 241.476 235.164 241.548C234.684 241.62 234.204 241.74 233.724 241.908C233.244 242.052 232.716 242.28 232.14 242.592L233.076 240.792V258H230.268V240.072Z" fill="#E9E8E4"/>
</svg>
