<svg width="213" height="407" viewBox="0 0 213 407" fill="none" xmlns="http://www.w3.org/2000/svg">
<path d="M165.028 110.518C165.028 104.677 168.208 99.5906 172.922 96.8593V79.9362C159.303 83.4412 149.24 95.8044 149.24 110.518C149.24 125.232 159.303 137.595 172.922 141.1V124.177C168.209 121.446 165.028 116.359 165.028 110.518Z" fill="#9F9C9F"/>
<path d="M212.393 110.518C212.393 95.8044 202.33 83.4412 188.71 79.9362V96.8593C193.425 99.5906 196.604 104.677 196.604 110.518C196.604 116.359 193.425 121.446 188.71 124.177V141.1C202.33 137.595 212.393 125.232 212.393 110.518Z" fill="#9F9C9F"/>
<path d="M180.816 94.7298C183.696 94.7298 186.387 95.5133 188.71 96.8593V79.9362V71.0474H180.816H172.922V79.9362V96.8593C175.247 95.5133 177.938 94.7298 180.816 94.7298Z" fill="#9F9C9F"/>
<path d="M180.816 126.307C177.937 126.307 175.246 125.523 172.922 124.177V141.1V288.076C172.922 306.608 162.025 323.53 145.158 331.2L117.953 343.566L88.9047 356.77L75.3455 362.933L37.8098 379.994L44.3422 394.363L47.1456 393.089L69.0499 383.132L106.29 366.205L151.686 345.571C174.177 335.349 188.71 312.783 188.71 288.076V141.1V124.177C186.387 125.523 183.696 126.307 180.816 126.307Z" fill="#9F9C9F"/>
<path d="M20.0906 384.027C18.4723 384.768 17.0435 385.866 15.9116 387.24L0 406.549H24.7975C26.4859 406.549 28.1545 406.185 29.6899 405.482L30.8721 404.94L46.0042 398.013L44.676 395.092L44.3435 394.361L37.811 379.993L36.2756 376.616L20.0906 384.027Z" fill="#9F9C9F"/>
<path d="M172.922 7.89416V47.3649V63.1532C172.922 67.5128 176.457 71.0474 180.816 71.0474H188.71H196.605C200.964 71.0474 204.499 67.5128 204.499 63.1532V7.89416C204.499 3.53461 200.964 0 196.605 0H180.816C176.457 0 172.922 3.53461 172.922 7.89416Z" fill="#7D787D"/>
<path d="M172.923 63.1532V47.3649V7.89416C172.923 3.53461 176.457 0 180.817 0H165.028C164.111 0 163.235 0.16479 162.415 0.45194C160.137 1.25221 158.339 3.06392 157.561 5.35224C157.497 5.53676 157.444 5.72425 157.395 5.91371C157.296 6.29559 157.216 6.68438 157.175 7.08698C157.148 7.35242 157.134 7.62181 157.134 7.89416V63.1532C157.134 63.4256 157.148 63.695 157.175 63.9604C157.215 64.362 157.295 64.7518 157.395 65.1337C157.444 65.3241 157.497 65.5116 157.561 65.6952C158.339 67.9835 160.137 69.7952 162.415 70.5955C163.235 70.8836 164.112 71.0474 165.028 71.0474H172.923H180.817C176.457 71.0474 172.923 67.5128 172.923 63.1532Z" fill="#5F555A"/>
<path d="M172.922 96.8593C168.207 99.5907 165.028 104.677 165.028 110.518C165.028 116.359 168.207 121.446 172.922 124.177C175.246 125.523 177.937 126.306 180.816 126.306C183.696 126.306 186.387 125.523 188.711 124.177C193.425 121.446 196.605 116.359 196.605 110.518C196.605 104.677 193.425 99.5907 188.711 96.8593C186.387 95.5134 183.696 94.7299 180.816 94.7299C177.937 94.7299 175.247 95.5134 172.922 96.8593Z" fill="#7D787D"/>
</svg>
