<svg width="200" height="382" viewBox="0 0 200 382" fill="none" xmlns="http://www.w3.org/2000/svg">
<path d="M155.244 103.769C155.244 98.2962 158.223 93.5297 162.641 90.9703V75.1129C149.879 78.3972 140.45 89.9819 140.45 103.769C140.45 117.556 149.879 129.141 162.641 132.425V116.568C158.224 114.008 155.244 109.242 155.244 103.769Z" fill="#DEE1E9"/>
<path d="M199.626 103.769C199.626 89.9819 190.196 78.3972 177.435 75.1129V90.9703C181.852 93.5297 184.832 98.2962 184.832 103.769C184.832 109.242 181.852 114.008 177.435 116.568V132.425C190.196 129.141 199.626 117.556 199.626 103.769Z" fill="#DEE1E9"/>
<path d="M170.038 88.975C172.736 88.975 175.257 89.7091 177.435 90.9703V75.1129V66.7839H170.038H162.641V75.1129V90.9703C164.819 89.7091 167.341 88.975 170.038 88.975Z" fill="#CACDD2"/>
<path d="M170.038 118.563C167.34 118.563 164.818 117.829 162.641 116.568V132.425V270.145C162.641 287.511 152.43 303.367 136.624 310.554L111.133 322.141L83.9139 334.513L71.2086 340.288L36.0366 356.275L42.1577 369.739L44.7845 368.545L65.3095 359.216L100.204 343.354L142.742 324.02C163.817 314.441 177.434 293.297 177.434 270.145V132.425V116.568C175.257 117.829 172.736 118.563 170.038 118.563Z" fill="#CACDD2"/>
<path d="M19.4334 360.054C17.917 360.749 16.5781 361.778 15.5175 363.065L0.60791 381.158H23.8438C25.4259 381.158 26.9894 380.817 28.4282 380.158L29.5359 379.651L43.7151 373.16L42.4705 370.422L42.1589 369.738L36.0379 356.274L34.5992 353.11L19.4334 360.054Z" fill="#DEE1E9"/>
<path d="M162.641 7.60758V44.5928V59.3868C162.641 63.4718 165.953 66.7839 170.038 66.7839H177.435H184.832C188.917 66.7839 192.229 63.4718 192.229 59.3868V7.60758C192.229 3.52256 188.917 0.210541 184.832 0.210541H170.038C165.953 0.210541 162.641 3.52256 162.641 7.60758Z" fill="#7D787D"/>
<path d="M162.641 59.3868V44.5928V7.60758C162.641 3.52256 165.953 0.210541 170.038 0.210541H155.244C154.384 0.210541 153.563 0.364954 152.796 0.634021C150.661 1.3839 148.976 3.08152 148.247 5.22573C148.187 5.39864 148.138 5.57432 148.091 5.75185C147.999 6.10968 147.924 6.47398 147.885 6.85123C147.86 7.09996 147.847 7.35238 147.847 7.60758V59.3868C147.847 59.642 147.86 59.8945 147.885 60.1432C147.923 60.5195 147.998 60.8847 148.091 61.2426C148.138 61.421 148.187 61.5967 148.247 61.7687C148.976 63.9129 150.661 65.6105 152.796 66.3604C153.563 66.6304 154.385 66.7839 155.244 66.7839H162.641H170.038C165.953 66.7839 162.641 63.4718 162.641 59.3868Z" fill="#5F555A"/>
<path d="M162.641 90.9704C158.223 93.5297 155.244 98.2962 155.244 103.769C155.244 109.242 158.223 114.008 162.641 116.568C164.818 117.829 167.34 118.563 170.038 118.563C172.736 118.563 175.257 117.829 177.435 116.568C181.853 114.008 184.832 109.242 184.832 103.769C184.832 98.2962 181.853 93.5297 177.435 90.9704C175.257 89.7092 172.736 88.975 170.038 88.975C167.34 88.975 164.819 89.7092 162.641 90.9704Z" fill="#7D787D"/>
</svg>
