<?xml version="1.0" encoding="utf-8"?>
<!-- Generator: Adobe Illustrator 28.2.0, SVG Export Plug-In . SVG Version: 6.00 Build 0)  -->
<svg version="1.1" id="Layer_1" xmlns="http://www.w3.org/2000/svg" xmlns:xlink="http://www.w3.org/1999/xlink" x="0px" y="0px"
	 viewBox="0 0 1234.3 1234.6" style="enable-background:new 0 0 1234.3 1234.6;" xml:space="preserve">
<g transform="translate(0.000000,1280.000000) scale(0.100000,-0.100000)">
	<path d="M5929.9,12542.7c-1421-43-2678-544-3720-1484c-606-546-1074-1156-1405-1830c-336-686-519-1397-571-2220
		c-13-214-7-757,10-950c119-1298,574-2366,1421-3335c138-158,469-487,620-616c953-816,1979-1252,3250-1381c222-23,974-26,1195-5
		c1389,131,2510,634,3526,1585c532,498,978,1099,1285,1731c325,672,502,1365,555,2176c15,233,6,805-15,1018
		c-91,886-327,1636-736,2342c-451,777-1146,1509-1925,2025C8404.9,12271.7,7258.9,12581.7,5929.9,12542.7z M4104.9,11888.7
		c0-2-22-16-49-30c-27-13-134-75-238-136c-1273-757-2180-1683-2737-2796c-86-173-235-524-266-631c-27-87-19-30,15,119
		c147,641,404,1194,796,1710c267,351,639,721,994,990c376,285,827,531,1320,720C4093.9,11893.7,4104.9,11896.7,4104.9,11888.7z
		 M4252.9,11498.7c-2-3-76-46-164-96c-1295-742-2229-1714-2703-2814c-65-151-154-390-166-443c-4-18-9-31-12-29c-7,8,35,230,73,382
		c164,653,508,1247,1044,1798c537,553,1085,910,1780,1158C4234.9,11500.7,4263.9,11509.7,4252.9,11498.7z M4394.9,11119.7
		c0-2-44-28-97-56c-309-165-746-455-1037-688c-820-657-1360-1421-1613-2282c-48-164-52-163-23,7c109,639,375,1200,818,1722
		c134,157,434,448,592,574c378,301,776,523,1220,678C4409.9,11129.7,4394.9,11124.7,4394.9,11119.7z M4540.9,10735.7
		c-3-5-42-31-88-58c-46-26-175-110-288-185c-1172-779-1879-1640-2136-2601c-23-87-24-89-19-36c9,96,53,316,89,448
		c115,421,324,827,603,1174c130,162,407,437,573,570c141,112,385,279,530,361c143,82,378,193,540,256c85,33,164,64,175,69
		C4545.9,10744.7,4546.9,10744.7,4540.9,10735.7z M4596.9,10293.7c-62-33-187-104-278-159c-1040-628-1665-1436-1888-2438
		c-27-122-31-101-15,82c56,647,328,1195,854,1720c310,311,658,548,1051,716c123,53,354,138,374,138
		C4702.9,10353.7,4658.9,10326.7,4596.9,10293.7z M4829.9,9955.7c-6-5-57-37-115-72c-664-402-1201-881-1515-1355
		c-195-293-329-609-384-909c-24-125-26-90-6,69c68,524,241,960,521,1318c88,112,328,344,446,432c275,204,574,358,943,485
		C4844.9,9967.7,4841.9,9966.7,4829.9,9955.7z M5003.9,9578.7c-3-2-48-30-100-61c-741-445-1252-940-1504-1459
		c-102-210-159-396-189-620l-14-100l-1,70c-6,372,125,803,344,1130c327,488,797,843,1340,1010
		C4988.9,9582.7,5012.9,9588.7,5003.9,9578.7z M5014.9,9140.7c-302-167-533-349-786-618c-356-380-572-799-618-1192l-12-112l-8,130
		c-12,218,17,459,80,654c150,458,552,844,1134,1086c81,34,301,114,315,114C5125.9,9203.7,5077.9,9174.7,5014.9,9140.7z
		 M5214.9,8767.7c-559-300-917-667-1100-1129c-58-145-116-409-122-545c-3-84-15,97-17,245c-1,166,17,302,60,440
		c123,397,442,709,939,920c76,33,301,114,315,114C5295.9,8813.7,5261.9,8792.7,5214.9,8767.7z M6335.9,8663.7
		c509-52,936-281,1286-689c368-430,517-1032,402-1628c-123-640-644-1228-1274-1442c-480-162-1047-126-1483,93
		c-527,265-921,767-1031,1311c-35,174-44,286-38,494c11,425,123,759,361,1079C4982.9,8450.7,5628.9,8734.7,6335.9,8663.7z
		 M1194.9,8068.7c0-8-7-15-15-15c-16,0-20,12-8,23C1182.9,8088.7,1194.9,8084.7,1194.9,8068.7z M8259.9,5733.7
		c-21-453-261-798-717-1030c-177-91-329-146-623-227c-11-3,48,29,130,70c484,244,837,580,1020,972c98,209,134,348,177,678
		C8251.9,6241.7,8264.9,5825.7,8259.9,5733.7z M8639.9,5752.7c-84-646-491-1182-1140-1500c-138-67-408-169-447-169c-7,0,25,21,72,46
		c114,61,183,103,325,198c470,312,793,650,987,1031c114,225,171,422,205,710c8,66,8,63,11-64
		C8653.9,5924.7,8648.9,5822.7,8639.9,5752.7z M9425.9,5641.7c-55-580-268-1044-675-1466c-367-380-761-631-1286-818
		c-52-19-99-34-105-34c-5,0,40,27,100,61c880,487,1515,1111,1793,1759c80,186,146,415,167,578
		C9432.9,5822.7,9436.9,5764.7,9425.9,5641.7z M8994.9,5586.7c-47-260-109-452-215-672c-110-226-232-397-411-573
		c-205-202-431-353-717-480c-115-51-435-163-443-156c-2,3,35,29,83,58c49,29,158,100,243,158c652,442,1084,888,1318,1361
		c69,138,135,317,148,401c4,25,9,40,11,33C9013.9,5710.7,9006.9,5651.7,8994.9,5586.7z M9799.9,5416.7c-67-315-203-696-333-933
		c-427-782-1018-1265-1836-1501c-76-22-140-38-142-36s38,21,89,43c105,45,340,173,472,258c453,292,935,763,1270,1241
		c208,297,385,655,467,947c18,64,35,114,37,113C9825.9,5546.7,9814.9,5487.7,9799.9,5416.7z M10241.9,5491.7c-3-8-6-5-6,6
		c-1,11,2,17,5,13C10243.9,5507.7,10244.9,5498.7,10241.9,5491.7z M10214.9,5356.7c-148-1071-793-1891-1995-2536
		c-148-79-522-257-542-257c-4,0,36,24,89,54c517,292,1055,697,1400,1054c313,325,613,775,835,1253c81,175,213,497,213,520
		c0,7,3,10,6,6C10223.9,5447.7,10221.9,5404.7,10214.9,5356.7z M10644.9,5333.7c0-5-4-10-10-10c-5,0-10,5-10,10c0,6,5,10,10,10
		C10640.9,5343.7,10644.9,5339.7,10644.9,5333.7z M10609.9,5167.7c-82-622-374-1204-887-1764c-457-500-987-877-1569-1116
		c-115-47-399-146-399-139c0,3,37,23,82,46c132,66,320,174,493,281c823,512,1463,1154,1886,1893c134,234,301,606,376,837
		c15,47,29,85,31,84C10623.9,5287.7,10617.9,5233.7,10609.9,5167.7z M10979.9,4897.7c-199-765-581-1412-1176-1989
		c-512-496-1091-851-1816-1114c-46-16-83-28-83-26s39,24,88,50c292,159,733,443,1020,659c821,618,1401,1288,1777,2051
		c87,177,204,453,219,519c4,15,9,26,11,24C11022.9,5069.7,11004.9,4991.7,10979.9,4897.7z M11431.9,4981.7c-3-7-5-2-5,12s2,19,5,13
		C11433.9,4999.7,11433.9,4987.7,11431.9,4981.7z M11353.9,4723.7c-97-341-188-583-319-857c-371-771-872-1349-1575-1818
		c-384-255-756-440-1225-609c-242-88-245-87-75,2c429,225,707,401,1055,665c505,384,984,857,1370,1352c125,161,343,485,446,665
		c103,180,246,473,314,642c30,75,55,136,57,135C11402.9,4898.7,11381.9,4819.7,11353.9,4723.7z"/>
	<path d="M6023.9,6998.7c-56-18-113-77-128-132c-14-49-14-137,0-186c23-84,107-139,217-141c172-3,251,82,240,258
		c-9,139-76,206-212,213C6096.9,7012.7,6051.9,7007.7,6023.9,6998.7z"/>
</g>
</svg>
