<svg width="352" height="390" viewBox="0 0 352 390" fill="none" xmlns="http://www.w3.org/2000/svg">
<circle cx="8" cy="100" r="8" fill="black"/>
<circle cx="56" cy="100" r="8" fill="black"/>
<circle cx="104" cy="100" r="8" fill="black"/>
<circle cx="152" cy="100" r="8" fill="black"/>
<circle cx="200" cy="100" r="8" fill="black"/>
<circle cx="248" cy="100" r="8" fill="black"/>
<circle cx="296" cy="100" r="8" fill="black"/>
<circle cx="344" cy="100" r="8" fill="black"/>
<circle cx="8" cy="130" r="8" fill="black"/>
<circle cx="56" cy="130" r="8" fill="black"/>
<circle cx="104" cy="130" r="8" fill="black"/>
<circle cx="152" cy="130" r="8" fill="black"/>
<circle cx="200" cy="130" r="8" fill="black"/>
<circle cx="248" cy="130" r="8" fill="black"/>
<circle cx="296" cy="130" r="8" fill="black"/>
<circle cx="344" cy="130" r="8" fill="black"/>
<circle cx="8" cy="162" r="8" fill="black"/>
<circle cx="56" cy="162" r="8" fill="black"/>
<circle cx="104" cy="162" r="8" fill="black"/>
<circle cx="152" cy="162" r="8" fill="black"/>
<circle cx="200" cy="162" r="8" fill="black"/>
<circle cx="248" cy="162" r="8" fill="black"/>
<circle cx="296" cy="162" r="8" fill="black"/>
<circle cx="344" cy="162" r="8" fill="black"/>
<circle cx="8" cy="194" r="8" fill="black"/>
<circle cx="56" cy="194" r="8" fill="black"/>
<circle cx="104" cy="194" r="8" fill="black"/>
<circle cx="152" cy="194" r="8" fill="black"/>
<circle cx="200" cy="194" r="8" fill="black"/>
<circle cx="248" cy="194" r="8" fill="black"/>
<circle cx="296" cy="194" r="8" fill="black"/>
<circle cx="344" cy="194" r="8" fill="black"/>
<circle cx="8" cy="224" r="8" fill="black"/>
<circle cx="56" cy="224" r="8" fill="black"/>
<circle cx="104" cy="224" r="8" fill="black"/>
<circle cx="152" cy="224" r="8" fill="black"/>
<circle cx="200" cy="224" r="8" fill="black"/>
<circle cx="248" cy="224" r="8" fill="black"/>
<circle cx="296" cy="224" r="8" fill="black"/>
<circle cx="344" cy="224" r="8" fill="black"/>
<circle cx="8" cy="256" r="8" fill="black"/>
<circle cx="56" cy="256" r="8" fill="black"/>
<circle cx="104" cy="256" r="8" fill="black"/>
<circle cx="152" cy="256" r="8" fill="black"/>
<circle cx="200" cy="256" r="8" fill="black"/>
<circle cx="248" cy="256" r="8" fill="black"/>
<circle cx="296" cy="256" r="8" fill="black"/>
<circle cx="344" cy="256" r="8" fill="black"/>
<circle cx="8" cy="288" r="8" fill="black"/>
<circle cx="56" cy="288" r="8" fill="black"/>
<circle cx="104" cy="288" r="8" fill="black"/>
<circle cx="152" cy="288" r="8" fill="black"/>
<circle cx="200" cy="288" r="8" fill="black"/>
<circle cx="248" cy="288" r="8" fill="black"/>
<circle cx="296" cy="288" r="8" fill="black"/>
<circle cx="344" cy="288" r="8" fill="black"/>
<circle cx="8" cy="318" r="8" fill="black"/>
<circle cx="56" cy="318" r="8" fill="black"/>
<circle cx="104" cy="318" r="8" fill="black"/>
<circle cx="152" cy="318" r="8" fill="black"/>
<circle cx="200" cy="318" r="8" fill="black"/>
<circle cx="248" cy="318" r="8" fill="black"/>
<circle cx="296" cy="318" r="8" fill="black"/>
<circle cx="344" cy="318" r="8" fill="black"/>
<circle cx="8" cy="350" r="8" fill="black"/>
<circle cx="56" cy="350" r="8" fill="black"/>
<circle cx="104" cy="350" r="8" fill="black"/>
<circle cx="152" cy="350" r="8" fill="black"/>
<circle cx="200" cy="350" r="8" fill="black"/>
<circle cx="248" cy="350" r="8" fill="black"/>
<circle cx="296" cy="350" r="8" fill="black"/>
<circle cx="344" cy="350" r="8" fill="black"/>
<circle cx="8" cy="382" r="8" fill="black"/>
<circle cx="56" cy="382" r="8" fill="black"/>
<circle cx="104" cy="382" r="8" fill="black"/>
<circle cx="152" cy="382" r="8" fill="black"/>
<circle cx="200" cy="382" r="8" fill="black"/>
<circle cx="248" cy="382" r="8" fill="black"/>
<circle cx="296" cy="382" r="8" fill="black"/>
<circle cx="344" cy="382" r="8" fill="black"/>
<circle cx="8" cy="8" r="8" fill="black"/>
<circle cx="56" cy="8" r="8" fill="black"/>
<circle cx="104" cy="8" r="8" fill="black"/>
<circle cx="152" cy="8" r="8" fill="black"/>
<circle cx="200" cy="8" r="8" fill="black"/>
<circle cx="248" cy="8" r="8" fill="black"/>
<circle cx="296" cy="8" r="8" fill="black"/>
<circle cx="344" cy="8" r="8" fill="black"/>
<circle cx="8" cy="38" r="8" fill="black"/>
<circle cx="56" cy="38" r="8" fill="black"/>
<circle cx="104" cy="38" r="8" fill="black"/>
<circle cx="152" cy="38" r="8" fill="black"/>
<circle cx="200" cy="38" r="8" fill="black"/>
<circle cx="248" cy="38" r="8" fill="black"/>
<circle cx="296" cy="38" r="8" fill="black"/>
<circle cx="344" cy="38" r="8" fill="black"/>
<circle cx="8" cy="70" r="8" fill="black"/>
<circle cx="56" cy="70" r="8" fill="black"/>
<circle cx="104" cy="70" r="8" fill="black"/>
<circle cx="152" cy="70" r="8" fill="black"/>
<circle cx="200" cy="70" r="8" fill="black"/>
<circle cx="248" cy="70" r="8" fill="black"/>
<circle cx="296" cy="70" r="8" fill="black"/>
<circle cx="344" cy="70" r="8" fill="black"/>
</svg>
