<svg width="36" height="36" viewBox="0 0 36 36" fill="none" xmlns="http://www.w3.org/2000/svg">
<path fill-rule="evenodd" clip-rule="evenodd" d="M25.5 27C25.5 27.3978 25.342 27.7794 25.0607 28.0607C24.7794 28.342 24.3978 28.5 24 28.5C23.6022 28.5 23.2206 28.342 22.9393 28.0607C22.658 27.7794 22.5 27.3978 22.5 27L22.5 21L12.9 28.2C12.6771 28.3671 12.4122 28.4689 12.1347 28.4939C11.8573 28.519 11.5783 28.4662 11.3292 28.3416C11.08 28.2171 10.8705 28.0256 10.724 27.7886C10.5776 27.5516 10.5 27.2786 10.5 27L10.5 9C10.5 8.72143 10.5776 8.44836 10.724 8.2114C10.8705 7.97444 11.08 7.78294 11.3292 7.65836C11.5783 7.53378 11.8573 7.48104 12.1347 7.50606C12.4122 7.53107 12.6771 7.63286 12.9 7.8L22.5 15L22.5 9C22.5 8.60217 22.658 8.22064 22.9393 7.93934C23.2206 7.65803 23.6022 7.5 24 7.5C24.3978 7.5 24.7794 7.65803 25.0607 7.93934C25.342 8.22064 25.5 8.60217 25.5 9L25.5 27Z" fill="black"/>
</svg>
