<svg width="36" height="36" viewBox="0 0 36 36" fill="none" xmlns="http://www.w3.org/2000/svg">
<g clip-path="url(#clip0_101_160)">
<path fill-rule="evenodd" clip-rule="evenodd" d="M12 7.5C11.2044 7.5 10.4413 7.81607 9.87868 8.37868C9.31607 8.94129 9 9.70435 9 10.5V25.5C9 27.15 10.35 28.5 12 28.5H13.5C14.2956 28.5 15.0587 28.1839 15.6213 27.6213C16.1839 27.0587 16.5 26.2956 16.5 25.5V10.5C16.5 9.70435 16.1839 8.94129 15.6213 8.37868C15.0587 7.81607 14.2956 7.5 13.5 7.5H12ZM22.5 7.5C21.7044 7.5 20.9413 7.81607 20.3787 8.37868C19.8161 8.94129 19.5 9.70435 19.5 10.5V25.5C19.5 27.15 20.85 28.5 22.5 28.5H24C24.7956 28.5 25.5587 28.1839 26.1213 27.6213C26.6839 27.0587 27 26.2956 27 25.5V10.5C27 9.70435 26.6839 8.94129 26.1213 8.37868C25.5587 7.81607 24.7956 7.5 24 7.5H22.5Z" fill="black"/>
<path fill-rule="evenodd" clip-rule="evenodd" d="M12 7.5C11.2044 7.5 10.4413 7.81607 9.87868 8.37868C9.31607 8.94129 9 9.70435 9 10.5V25.5C9 27.15 10.35 28.5 12 28.5H13.5C14.2956 28.5 15.0587 28.1839 15.6213 27.6213C16.1839 27.0587 16.5 26.2956 16.5 25.5V10.5C16.5 9.70435 16.1839 8.94129 15.6213 8.37868C15.0587 7.81607 14.2956 7.5 13.5 7.5H12ZM22.5 7.5C21.7044 7.5 20.9413 7.81607 20.3787 8.37868C19.8161 8.94129 19.5 9.70435 19.5 10.5V25.5C19.5 27.15 20.85 28.5 22.5 28.5H24C24.7956 28.5 25.5587 28.1839 26.1213 27.6213C26.6839 27.0587 27 26.2956 27 25.5V10.5C27 9.70435 26.6839 8.94129 26.1213 8.37868C25.5587 7.81607 24.7956 7.5 24 7.5H22.5Z" fill="black"/>
</g>
<defs>
<clipPath id="clip0_101_160">
<rect width="36" height="36" fill="white"/>
</clipPath>
</defs>
</svg>
