<svg width="36" height="36" viewBox="0 0 36 36" fill="none" xmlns="http://www.w3.org/2000/svg">
<path fill-rule="evenodd" clip-rule="evenodd" d="M12.9 7.8C12.6771 7.63286 12.4122 7.53108 12.1347 7.50606C11.8573 7.48104 11.5783 7.53378 11.3292 7.65836C11.08 7.78294 10.8705 7.97444 10.724 8.2114C10.5776 8.44837 10.5 8.72143 10.5 9V27C10.5 27.2786 10.5776 27.5516 10.724 27.7886C10.8705 28.0256 11.08 28.2171 11.3292 28.3416C11.5783 28.4662 11.8573 28.519 12.1347 28.4939C12.4122 28.4689 12.6771 28.3671 12.9 28.2L24.9 19.2C25.0863 19.0603 25.2375 18.8791 25.3416 18.6708C25.4458 18.4625 25.5 18.2329 25.5 18C25.5 17.7671 25.4458 17.5375 25.3416 17.3292C25.2375 17.1209 25.0863 16.9397 24.9 16.8L12.9 7.8Z" fill="black"/>
</svg>
