<svg width="36" height="36" viewBox="0 0 36 36" fill="none" xmlns="http://www.w3.org/2000/svg">
<path fill-rule="evenodd" clip-rule="evenodd" d="M10.5 9C10.5 8.60218 10.658 8.22065 10.9393 7.93934C11.2206 7.65804 11.6022 7.5 12 7.5C12.3978 7.5 12.7794 7.65804 13.0607 7.93934C13.342 8.22065 13.5 8.60218 13.5 9V15L23.1 7.8C23.3229 7.63286 23.5878 7.53108 23.8653 7.50606C24.1427 7.48104 24.4217 7.53378 24.6708 7.65836C24.92 7.78294 25.1295 7.97444 25.276 8.2114C25.4224 8.44837 25.5 8.72143 25.5 9V27C25.5 27.2786 25.4224 27.5516 25.276 27.7886C25.1295 28.0256 24.92 28.2171 24.6708 28.3416C24.4217 28.4662 24.1427 28.519 23.8653 28.4939C23.5878 28.4689 23.3229 28.3671 23.1 28.2L13.5 21V27C13.5 27.3978 13.342 27.7794 13.0607 28.0607C12.7794 28.342 12.3978 28.5 12 28.5C11.6022 28.5 11.2206 28.342 10.9393 28.0607C10.658 27.7794 10.5 27.3978 10.5 27V9Z" fill="black"/>
</svg>
